<svg width="1200" height="900" viewBox="0 0 1200 900" fill="none" xmlns="http://www.w3.org/2000/svg">
  <defs>
    <linearGradient id="bg2" x1="0" y1="0" x2="1200" y2="900" gradientUnits="userSpaceOnUse">
      <stop stop-color="#F7FCFF"/>
      <stop offset="1" stop-color="#EAF8F6"/>
    </linearGradient>
    <linearGradient id="panel" x1="260" y1="180" x2="940" y2="760" gradientUnits="userSpaceOnUse">
      <stop stop-color="#FFFFFF"/>
      <stop offset="1" stop-color="#F2FBFA"/>
    </linearGradient>
    <filter id="shadow2" x="-20%" y="-20%" width="140%" height="140%">
      <feDropShadow dx="0" dy="18" stdDeviation="24" flood-color="#12343B" flood-opacity="0.14"/>
    </filter>
  </defs>

  <rect width="1200" height="900" rx="42" fill="url(#bg2)"/>
  <circle cx="980" cy="190" r="110" fill="#DDF3EF"/>
  <circle cx="170" cy="140" r="72" fill="#E2F4F1"/>
  <circle cx="150" cy="760" r="100" fill="#DDF3EF"/>
  <rect x="180" y="680" width="840" height="38" rx="19" fill="#D7E8E5"/>

  <g filter="url(#shadow2)">
    <rect x="240" y="140" width="720" height="560" rx="34" fill="url(#panel)"/>
    <rect x="300" y="200" width="250" height="42" rx="12" fill="#DFF4F1"/>
    <rect x="300" y="266" width="540" height="20" rx="10" fill="#D7E7E4"/>
    <rect x="300" y="306" width="420" height="20" rx="10" fill="#D7E7E4"/>
    <rect x="300" y="370" width="250" height="42" rx="12" fill="#DFF4F1"/>
    <rect x="300" y="436" width="540" height="20" rx="10" fill="#D7E7E4"/>
    <rect x="300" y="476" width="420" height="20" rx="10" fill="#D7E7E4"/>
    <rect x="300" y="540" width="250" height="42" rx="12" fill="#DFF4F1"/>
    <rect x="300" y="606" width="540" height="20" rx="10" fill="#D7E7E4"/>
    <rect x="300" y="646" width="420" height="20" rx="10" fill="#D7E7E4"/>
    <rect x="660" y="200" width="220" height="520" rx="26" fill="#12343B"/>
    <rect x="694" y="234" width="152" height="152" rx="26" fill="#0B7F86"/>
    <path d="M770 260L784 286H812L790 304L798 332L770 316L742 332L750 304L728 286H756L770 260Z" fill="#F4B942"/>
    <rect x="696" y="420" width="148" height="18" rx="9" fill="#D7E7E4"/>
    <rect x="696" y="454" width="120" height="18" rx="9" fill="#D7E7E4"/>
    <rect x="696" y="488" width="136" height="18" rx="9" fill="#D7E7E4"/>
    <rect x="694" y="544" width="152" height="70" rx="20" fill="#F4B942"/>
  </g>

  <g transform="translate(255 615)">
    <ellipse cx="110" cy="90" rx="82" ry="22" fill="#B7D9D6"/>
    <path d="M110 22C88 22 70 40 70 62C70 82 82 98 110 98C138 98 150 82 150 62C150 40 132 22 110 22Z" fill="#0B7F86"/>
    <path d="M110 54V78" stroke="white" stroke-width="10" stroke-linecap="round"/>
    <path d="M98 66H122" stroke="white" stroke-width="10" stroke-linecap="round"/>
  </g>

  <g transform="translate(422 620)">
    <ellipse cx="88" cy="86" rx="72" ry="22" fill="#B7D9D6"/>
    <path d="M88 28C68 28 52 44 52 64C52 82 63 96 88 96C113 96 124 82 124 64C124 44 108 28 88 28Z" fill="#12343B"/>
    <rect x="66" y="96" width="44" height="56" rx="18" fill="#0B7F86"/>
    <path d="M88 52V76" stroke="white" stroke-width="8" stroke-linecap="round"/>
    <path d="M76 64H100" stroke="white" stroke-width="8" stroke-linecap="round"/>
  </g>
</svg>
