<svg width="1200" height="900" viewBox="0 0 1200 900" fill="none" xmlns="http://www.w3.org/2000/svg">
  <defs>
    <linearGradient id="bg" x1="0" y1="0" x2="1200" y2="900" gradientUnits="userSpaceOnUse">
      <stop stop-color="#E8F8F6"/>
      <stop offset="1" stop-color="#F7FCFF"/>
    </linearGradient>
    <linearGradient id="roof" x1="250" y1="180" x2="950" y2="180" gradientUnits="userSpaceOnUse">
      <stop stop-color="#0B7F86"/>
      <stop offset="1" stop-color="#12343B"/>
    </linearGradient>
    <linearGradient id="glass" x1="430" y1="290" x2="770" y2="620" gradientUnits="userSpaceOnUse">
      <stop stop-color="#DFF4F1"/>
      <stop offset="1" stop-color="#FFFFFF"/>
    </linearGradient>
    <linearGradient id="accent" x1="0" y1="0" x2="200" y2="200" gradientUnits="userSpaceOnUse">
      <stop stop-color="#F4B942"/>
      <stop offset="1" stop-color="#F8D97C"/>
    </linearGradient>
    <filter id="shadow" x="-20%" y="-20%" width="140%" height="140%">
      <feDropShadow dx="0" dy="18" stdDeviation="22" flood-color="#12343B" flood-opacity="0.15"/>
    </filter>
  </defs>

  <rect width="1200" height="900" rx="42" fill="url(#bg)"/>
  <circle cx="980" cy="150" r="96" fill="#D8F1ED"/>
  <circle cx="180" cy="190" r="62" fill="#D8F1ED"/>
  <circle cx="1020" cy="720" r="140" fill="#E4F5F2"/>
  <rect x="200" y="660" width="800" height="36" rx="18" fill="#DCECEC"/>

  <g filter="url(#shadow)">
    <rect x="260" y="210" width="680" height="420" rx="34" fill="#FFFFFF"/>
    <rect x="330" y="280" width="540" height="280" rx="24" fill="url(#glass)" stroke="#B7D9D6" stroke-width="4"/>
    <path d="M260 238C260 220.327 274.327 206 292 206H908C925.673 206 940 220.327 940 238V264H260V238Z" fill="url(#roof)"/>
    <path d="M598 320L640 320V362H682V404H640V446H598V404H556V362H598V320Z" fill="#0B7F86"/>
    <rect x="370" y="350" width="130" height="130" rx="18" fill="#EEF9F8" stroke="#BFE1DE" stroke-width="4"/>
    <rect x="700" y="350" width="130" height="130" rx="18" fill="#EEF9F8" stroke="#BFE1DE" stroke-width="4"/>
    <rect x="470" y="565" width="260" height="20" rx="10" fill="#D8E9E6"/>
    <rect x="500" y="580" width="200" height="18" rx="9" fill="#C2D8D4"/>
  </g>

  <g transform="translate(250 590)">
    <ellipse cx="112" cy="112" rx="92" ry="28" fill="#B7D9D6"/>
    <path d="M112 40C84 40 62 63 62 92C62 118 78 142 112 142C146 142 162 118 162 92C162 63 140 40 112 40Z" fill="#0B7F86"/>
    <path d="M86 88H138V100H86V88Z" fill="#FFFFFF"/>
    <path d="M100 74H124V120H100V74Z" fill="#FFFFFF"/>
  </g>

  <g transform="translate(880 565)">
    <ellipse cx="86" cy="86" rx="74" ry="24" fill="#B7D9D6"/>
    <path d="M86 20C66 20 49 37 49 60C49 82 62 99 86 99C110 99 123 82 123 60C123 37 106 20 86 20Z" fill="#F4B942"/>
    <path d="M77 50H95V68H113V86H95V104H77V86H59V68H77V50Z" fill="#12343B"/>
  </g>

  <g transform="translate(370 615)">
    <path d="M78 18C62 18 50 31 50 47C50 59 56 69 65 75V118H91V75C100 69 106 59 106 47C106 31 94 18 78 18Z" fill="#12343B"/>
    <ellipse cx="78" cy="140" rx="58" ry="18" fill="#B7D9D6"/>
    <rect x="38" y="118" width="80" height="16" rx="8" fill="#0B7F86"/>
    <rect x="64" y="128" width="28" height="52" rx="14" fill="#0B7F86"/>
  </g>
</svg>
